. 
 
http://www.torrenting.com          :     Once & For all ;)


               www . Torrenting . Com 

(((((((((((((= Enjoy No RAR releases =))))))))))))))))))))


...................................NFO:....................................

.[img]http://img849.imageshack.us/img849/7308/23801031.jpg[/img]


[color=blue][size=5][b]50.50.2011.BDRip.XVID.AC3.HQ.Hive-CM8[/b][/size][/color]


[b]Thx Hive

CM8 Doing It Right The First Time :D


Source: Bluray

Video: 720x400 @bitrate 1700 2pass
Audio: English DTS to AC3 5.1 @448
Sample: Yes, included
Subs: Yes, English in srt /subs[/b]
 
http://www.imdb.com/title/tt1306980/


General
Complete name                  : 50.50.2011.BDRip.XVID.AC3.HQ.Hive-CM8.avi
Format                         : AVI
Format/Info                    : Audio Video Interleave
File size                      : 1.51 GiB
Duration                       : 1h 40mn
Overall bit rate               : 2 157 Kbps
Writing application            : Nandub v1.0rc2
Writing library                : Nandub build 1853/release

Video
ID                             : 0
Format                         : MPEG-4 Visual
Format profile                 : Advanced Simple@L5
Format settings, BVOP          : 1
Format settings, QPel          : Yes
Format settings, GMC           : No warppoints
Format settings, Matrix        : Default (H.263)
Muxing mode                    : Packed bitstream
Codec ID                       : XVID
Codec ID/Hint                  : XviD
Duration                       : 1h 40mn
Bit rate                       : 1 700 Kbps
Width                          : 720 pixels
Height                         : 400 pixels
Display aspect ratio           : 16:9
Frame rate                     : 23.976 fps
Color space                    : YUV
Chroma subsampling             : 4:2:0
Bit depth                      : 8 bits
Scan type                      : Progressive
Compression mode               : Lossy
Bits/(Pixel*Frame)             : 0.246
Stream size                    : 1.19 GiB (79%)
Writing library                : XviD 1.2.1 (UTC 2008-12-04)

Audio
ID                             : 1
Format                         : AC-3
Format/Info                    : Audio Coding 3
Mode extension                 : CM (complete main)
Codec ID                       : 2000
Duration                       : 1h 40mn
Bit rate mode                  : Constant
Bit rate                       : 448 Kbps
Channel(s)                     : 6 channels
Channel positions              : Front: L C R, Side: L R, LFE
Sampling rate                  : 48.0 KHz
Bit depth                      : 16 bits
Compression mode               : Lossy
Stream size                    : 321 MiB (21%)
Alignment                      : Split accross interleaves
Interleave, duration           : 42 ms (1.00 video frame)
Interleave, preload duration   : 500 ms


Plot:
Adam is a 27 year old writer of radio programs and is diagnosed with a rare form of
spinal cancer. With the help of his best friend, his mother, and a young therapist
at the cancer center, Adam learns who and what are the most important things in
his life.


Cast:
Joseph Gordon-Levitt   ...    Adam
Seth Rogen             ...    Kyle
Anna Kendrick          ...    Katherine
Bryce Dallas Howard    ...    Rachael
Anjelica Huston        ...    Diane


[img]http://img841.imageshack.us/img841/5085/23372877.png[/img]
[img]http://img6.imageshack.us/img6/2839/5050c.png[/img]
[img]http://img703.imageshack.us/img703/121/505050.png[/img]
[img]http://img839.imageshack.us/img839/9929/50505050.png[/img]
[img]http://img683.imageshack.us/img683/4707/5050505050.png[/img]
[img]http://img42.imageshack.us/img42/8472/505050505050.png[/img]
[img]http://img684.imageshack.us/img684/5549/50505050505050.png[/img]
[img]http://img209.imageshack.us/img209/9251/5050505050505050.png[/img]



Greetz

ViSiON,SPK,SceneLovers,PRESTiGE,SANTi,3LT0N,YanKeeS,MAGNET,THC,T0XiC,LKRG,Feel-Free,FLAWL3SS,
WBZ,BHRG,SiC,26K,NOVA,D2U,SeToNeUp,Rapeseed,SAFC,goldadvance,KaN1vE,Unevano,Pinnz,Wayne
Mr Hive,and most P2P groups
Great Work Guys :D

LOOKING FOR ANYTHING YOU WANT TO LOOK AND SOUND BETTER

CM8@hushmail.com